<svg id="glipy_copy_4" viewBox="0 0 64 64" xmlns="http://www.w3.org/2000/svg" xmlns:xlink="http://www.w3.org/1999/xlink" data-name="glipy copy 4"><linearGradient id="linear-gradient" gradientUnits="userSpaceOnUse" x1="2" x2="62" y1="32" y2="32"><stop offset="0" stop-color="#7f00ff"/><stop offset="1" stop-color="#e100ff"/></linearGradient><path d="m32 2a30 30 0 1 0 30 30 30.03661 30.03661 0 0 0 -30-30zm.74 10a2.195 2.195 0 1 1 -2.2 2.2 2.20646 2.20646 0 0 1 2.2-2.2zm0 8.9a2.2 2.2 0 1 1 -2.2 2.2 2.2065 2.2065 0 0 1 2.2-2.2zm-8.9 0a2.2 2.2 0 1 1 -2.2 2.2 2.20649 2.20649 0 0 1 2.2-2.2zm0 8.9a2.2 2.2 0 1 1 -2.2 2.2 2.20645 2.20645 0 0 1 2.2-2.2zm-3.47 13.56 25.48-25.48h-1.24a.715.715 0 0 1 0-1.43h2.97a.71269.71269 0 0 1 .71.71v2.97a.715.715 0 1 1 -1.43 0v-1.24l-25.48 25.48a.71418.71418 0 0 1 -1.01-1.01zm26.44-8.4a2.2 2.2 0 1 1 -2.2-2.19 2.2 2.2 0 0 1 2.2 2.19zm-11.1 2.2a2.195 2.195 0 1 1 2.2-2.2 2.2 2.2 0 0 1 -2.2 2.2zm2.2 6.71a2.2 2.2 0 1 1 -2.2-2.2 2.19793 2.19793 0 0 1 2.2 2.2zm12.63 6.65h-8.18v.77a.715.715 0 0 1 -1.43 0v-.77h-7.47v.77a.715.715 0 0 1 -1.43 0v-.77h-7.47v.77a.715.715 0 0 1 -1.43 0v-.77h-8.19a.70855.70855 0 0 1 -.71-.72v-8.18h-.77a.715.715 0 1 1 0-1.43h.77v-7.48h-.77a.71006.71006 0 1 1 0-1.42h.77v-7.48h-.77a.715.715 0 1 1 0-1.43h.77v-8.18a.71009.71009 0 1 1 1.42 0v8.18h.77a.715.715 0 1 1 0 1.43h-.77v7.48h.77a.71006.71006 0 1 1 0 1.42h-.77v7.48h.77a.715.715 0 1 1 0 1.43h-.77v7.47h7.48v-.77a.715.715 0 1 1 1.43 0v.77h7.47v-.77a.715.715 0 1 1 1.43 0v.77h7.47v-.77a.715.715 0 1 1 1.43 0v.77h8.18a.715.715 0 1 1 0 1.43z" fill="url(#linear-gradient)"/></svg>